<svg xmlns="http://www.w3.org/2000/svg">
  <!-- Temporary sprite. Replace/extend symbols with SVG exports from Figma. -->
  <symbol id="icon-placeholder" viewBox="0 0 24 24">
    <rect x="3" y="3" width="18" height="18" rx="4" fill="none" stroke="currentColor" />
    <path d="M8 12h8M12 8v8" fill="none" stroke="currentColor" stroke-linecap="round" />
  </symbol>
  <symbol id="icon-loader-sun" viewBox="0 0 64 64">
    <circle cx="32" cy="32" r="7" fill="currentColor" stroke="none"/>
    <path d="M30.5 18 32 2l1.5 16Z" fill="currentColor" stroke="none"/>
    <path d="M30.5 18 32 2l1.5 16Z" fill="currentColor" stroke="none" transform="rotate(30 32 32)"/>
    <path d="M30.5 18 32 2l1.5 16Z" fill="currentColor" stroke="none" transform="rotate(60 32 32)"/>
    <path d="M30.5 18 32 2l1.5 16Z" fill="currentColor" stroke="none" transform="rotate(90 32 32)"/>
    <path d="M30.5 18 32 2l1.5 16Z" fill="currentColor" stroke="none" transform="rotate(120 32 32)"/>
    <path d="M30.5 18 32 2l1.5 16Z" fill="currentColor" stroke="none" transform="rotate(150 32 32)"/>
    <path d="M30.5 18 32 2l1.5 16Z" fill="currentColor" stroke="none" transform="rotate(180 32 32)"/>
    <path d="M30.5 18 32 2l1.5 16Z" fill="currentColor" stroke="none" transform="rotate(210 32 32)"/>
    <path d="M30.5 18 32 2l1.5 16Z" fill="currentColor" stroke="none" transform="rotate(240 32 32)"/>
    <path d="M30.5 18 32 2l1.5 16Z" fill="currentColor" stroke="none" transform="rotate(270 32 32)"/>
    <path d="M30.5 18 32 2l1.5 16Z" fill="currentColor" stroke="none" transform="rotate(300 32 32)"/>
    <path d="M30.5 18 32 2l1.5 16Z" fill="currentColor" stroke="none" transform="rotate(330 32 32)"/>
  </symbol>
  <symbol id="icon-chevron-left" viewBox="0 0 24 24"><path d="m15 5-7 7 7 7"/></symbol>
  <symbol id="icon-chevron-right" viewBox="0 0 24 24"><path d="m9 5 7 7-7 7"/></symbol>
  <symbol id="icon-double-chevron-left" viewBox="0 0 24 24"><path d="m13 5-7 7 7 7M19 5l-7 7 7 7"/></symbol>
  <symbol id="icon-double-chevron-right" viewBox="0 0 24 24"><path d="m11 5 7 7-7 7M5 5l7 7-7 7"/></symbol>
</svg>
