<svg xmlns="http://www.w3.org/2000/svg">
  <!-- Placeholder sprite. Replace or extend symbols with SVG exports from Figma. -->
  <symbol id="icon-menu" viewBox="0 0 32 32"><path d="M5 9h22M5 16h22M5 23h22"/></symbol>
  <symbol id="icon-close" viewBox="0 0 32 32"><path d="M7 7l18 18M25 7L7 25"/></symbol>
  <symbol id="icon-facebook" viewBox="0 0 24 24"><path d="M14 8h3V4h-3c-3 0-5 2-5 5v3H6v4h3v7h4v-7h3l1-4h-4V9c0-.6.4-1 1-1Z" fill="currentColor" stroke="none"/></symbol>
  <symbol id="icon-instagram" viewBox="0 0 24 24"><rect x="3" y="3" width="18" height="18" rx="5"/><circle cx="12" cy="12" r="4"/><circle cx="17.5" cy="6.5" r="1" fill="currentColor" stroke="none"/></symbol>
  <symbol id="icon-youtube" viewBox="0 0 24 24"><path d="M21 8.5c-.2-1.5-1.2-2.5-2.7-2.7C16.3 5.5 14.2 5.5 12 5.5s-4.3 0-6.3.3C4.2 6 3.2 7 3 8.5a22 22 0 0 0 0 7c.2 1.5 1.2 2.5 2.7 2.7 2 .3 4.1.3 6.3.3s4.3 0 6.3-.3c1.5-.2 2.5-1.2 2.7-2.7a22 22 0 0 0 0-7Z"/><path d="m10 9 5 3-5 3V9Z" fill="currentColor" stroke="none"/></symbol>
  <symbol id="icon-search" viewBox="0 0 24 24"><circle cx="10.5" cy="10.5" r="6.5"/><path d="m15.5 15.5 5 5"/></symbol>
  <symbol id="icon-arrow-right" viewBox="0 0 24 24"><path d="M4 12h15M14 7l5 5-5 5"/></symbol>
  <symbol id="icon-arrow-up" viewBox="0 0 24 24"><path d="M12 20V4M6 10l6-6 6 6"/></symbol>
  <symbol id="icon-running" viewBox="0 0 24 24"><circle cx="15" cy="4" r="2"/><path d="m9 21 2-6 2 2 2 4M7 12l3-5 4 2 3 3 3-1M10 7 7 9 5 13"/></symbol>
  <symbol id="icon-quote" viewBox="0 0 24 24"><path d="M5 7h6v6H7c0 2 1 3 3 4M14 7h6v6h-4c0 2 1 3 3 4"/></symbol>
  <symbol id="icon-dumbbell" viewBox="0 0 24 24"><path d="M3 9v6M6 7v10M18 7v10M21 9v6M6 12h12"/></symbol>
  <symbol id="icon-heart" viewBox="0 0 24 24"><path d="M20.8 4.6a5.5 5.5 0 0 0-7.8 0L12 5.7l-1.1-1.1a5.5 5.5 0 0 0-7.8 7.8l1.1 1.1L12 21l7.8-7.5 1.1-1.1a5.5 5.5 0 0 0-.1-7.8Z"/></symbol>
  <symbol id="icon-trash" viewBox="0 0 24 24"><path d="M4 7h16M9 7V4h6v3M7 7l1 14h8l1-14M10 11v6M14 11v6"/></symbol>
  <symbol id="icon-star" viewBox="0 0 24 24"><path d="m12 2.5 2.9 5.9 6.5.9-4.7 4.6 1.1 6.5-5.8-3.1-5.8 3.1 1.1-6.5-4.7-4.6 6.5-.9L12 2.5Z"/></symbol>
  <symbol id="icon-spark" viewBox="0 0 38 38"><path d="M19 1v36M1 19h36M6.3 6.3l25.4 25.4M31.7 6.3 6.3 31.7M10 2l18 34M36 10 2 28M28 2 10 36M2 10l34 18"/></symbol>
  <symbol id="icon-loader-sun" viewBox="0 0 64 64">
    <circle cx="32" cy="32" r="7" fill="currentColor" stroke="none"/>
    <path d="M30.5 18 32 2l1.5 16Z" fill="currentColor" stroke="none"/>
    <path d="M30.5 18 32 2l1.5 16Z" fill="currentColor" stroke="none" transform="rotate(30 32 32)"/>
    <path d="M30.5 18 32 2l1.5 16Z" fill="currentColor" stroke="none" transform="rotate(60 32 32)"/>
    <path d="M30.5 18 32 2l1.5 16Z" fill="currentColor" stroke="none" transform="rotate(90 32 32)"/>
    <path d="M30.5 18 32 2l1.5 16Z" fill="currentColor" stroke="none" transform="rotate(120 32 32)"/>
    <path d="M30.5 18 32 2l1.5 16Z" fill="currentColor" stroke="none" transform="rotate(150 32 32)"/>
    <path d="M30.5 18 32 2l1.5 16Z" fill="currentColor" stroke="none" transform="rotate(180 32 32)"/>
    <path d="M30.5 18 32 2l1.5 16Z" fill="currentColor" stroke="none" transform="rotate(210 32 32)"/>
    <path d="M30.5 18 32 2l1.5 16Z" fill="currentColor" stroke="none" transform="rotate(240 32 32)"/>
    <path d="M30.5 18 32 2l1.5 16Z" fill="currentColor" stroke="none" transform="rotate(270 32 32)"/>
    <path d="M30.5 18 32 2l1.5 16Z" fill="currentColor" stroke="none" transform="rotate(300 32 32)"/>
    <path d="M30.5 18 32 2l1.5 16Z" fill="currentColor" stroke="none" transform="rotate(330 32 32)"/>
  </symbol>
  <symbol id="icon-chevron-left" viewBox="0 0 24 24"><path d="m15 5-7 7 7 7"/></symbol>
  <symbol id="icon-chevron-right" viewBox="0 0 24 24"><path d="m9 5 7 7-7 7"/></symbol>
  <symbol id="icon-double-chevron-left" viewBox="0 0 24 24"><path d="m13 5-7 7 7 7M19 5l-7 7 7 7"/></symbol>
  <symbol id="icon-double-chevron-right" viewBox="0 0 24 24"><path d="m11 5 7 7-7 7M5 5l7 7-7 7"/></symbol>
</svg>
