<svg aria-hidden="true" style="position: absolute; width: 0; height: 0; overflow: hidden;" version="1.1"
     xmlns="http://www.w3.org/2000/svg" xmlns:xlink="http://www.w3.org/1999/xlink">
    <defs>
          <symbol id="icon-search" fill="none" viewBox="0 0 18 18">
            <path d="M8.25 14.25C11.5637 14.25 14.25 11.5637 14.25 8.25C14.25 4.93629 11.5637 2.25 8.25 2.25C4.93629 2.25 2.25 4.93629 2.25 8.25C2.25 11.5637 4.93629 14.25 8.25 14.25Z"
                  stroke="currentColor" stroke-width="1.5" stroke-linecap="round" stroke-linejoin="round"></path>
            <path d="M15.7498 15.75L12.4873 12.4875" stroke="currentColor" stroke-width="1.5" stroke-linecap="round"
                  stroke-linejoin="round"></path>
        </symbol>

        <symbol id="icon-facebook" viewBox="0 0 32 32">
            <path d="M19.52 4.64c0.24 0 0.48 0 0.96 0v3.6c-0.24 0-0.72 0-1.2 0s-0.96 0-1.2 0.24c-0.24 0.24-0.24 0.48-0.24 1.040 0 0.48 0 0.8 0 1.28h2.64v3.040h-2.64v13.2h-4.080v-13.28h-2.16v-3.040h2.16v-1.040c0-1.76 0.24-3.040 0.72-3.6 0.72-1.040 2.16-1.52 4.32-1.52 0.24 0.080 0.48 0.080 0.72 0.080z"></path>
        </symbol>

        <symbol id="icon-instagram" viewBox="0 0 32 32">
            <path d="M28.717 10.756c-0.016-1.074-0.215-2.14-0.596-3.145-0.667-1.716-2.024-3.073-3.743-3.737-0.994-0.373-2.044-0.573-3.108-0.596-1.368-0.061-1.801-0.078-5.273-0.078s-3.917 0-5.274 0.078c-1.062 0.023-2.112 0.223-3.106 0.596-1.719 0.664-3.078 2.021-3.743 3.737-0.374 0.992-0.576 2.041-0.596 3.101-0.061 1.367-0.080 1.8-0.080 5.265s0 3.909 0.080 5.265c0.021 1.062 0.222 2.109 0.596 3.104 0.667 1.714 2.024 3.071 3.744 3.735 0.989 0.386 2.040 0.605 3.106 0.639 1.369 0.061 1.803 0.079 5.274 0.079s3.916 0 5.274-0.079c1.062-0.021 2.113-0.221 3.108-0.595 1.719-0.666 3.076-2.022 3.743-3.737 0.374-0.994 0.574-2.041 0.596-3.104 0.061-1.365 0.080-1.798 0.080-5.265-0.003-3.466-0.003-3.906-0.082-5.264zM15.99 22.531c-3.631 0-6.572-2.936-6.572-6.561s2.941-6.561 6.572-6.561c3.628 0 6.572 2.936 6.572 6.561s-2.944 6.561-6.572 6.561zM22.823 10.696c-0.849 0-1.532-0.684-1.532-1.53s0.684-1.53 1.532-1.53c0.846 0 1.531 0.684 1.531 1.53s-0.685 1.53-1.531 1.53z"></path>
            <path d="M15.992 19.976c2.211 0 4.004-1.793 4.004-4.004s-1.793-4.004-4.004-4.004c-2.211 0-4.004 1.793-4.004 4.004s1.793 4.004 4.004 4.004z"></path>
        </symbol>

        <symbol id="icon-youtube" viewBox="0 0 32 32">
            <path d="M24.24 6c-1.36-0.080-4.16-0.16-8.4-0.16h-0.56c-4.080 0-6.8 0.080-8.16 0.24-1.84 0.16-3.12 0.64-3.84 1.28-0.64 0.56-1.12 1.6-1.28 2.96-0.080 0.88-0.16 2.72-0.16 5.52v0.4c0 2.64 0.080 4.48 0.24 5.36 0.24 1.28 0.64 2.24 1.44 2.8 0.8 0.64 2.16 1.040 4.080 1.2 1.36 0.080 4.16 0.16 8.4 0.16h0.56c4.080 0 6.8-0.080 8.16-0.24 1.84-0.16 3.12-0.64 3.84-1.28 0.64-0.56 1.12-1.6 1.28-2.96 0.080-0.88 0.16-2.72 0.16-5.52v-0.4c0-2.64-0.080-4.48-0.24-5.36-0.24-1.28-0.64-2.24-1.44-2.8-0.8-0.64-2.16-1.040-4.080-1.2zM21.12 15.84l-8.8 5.28v-10.56l8.8 5.28z"></path>
        </symbol>

        <symbol id="icon-fluent_food" viewBox="0 0 32 32">
            <path d="M7.36 9.143h-1.92c-0.532 0-0.96 0.459-0.96 1.029v4.457h-0.96c-0.176 0-0.32 0.154-0.32 0.343v2.057c0 0.188 0.144 0.343 0.32 0.343h0.96v4.457c0 0.57 0.428 1.028 0.96 1.028h1.92c0.532 0 0.96-0.459 0.96-1.028v-11.657c0-0.57-0.428-1.029-0.96-1.029zM28.48 14.629h-0.96v-4.457c0-0.57-0.428-1.029-0.96-1.029h-1.92c-0.532 0-0.96 0.459-0.96 1.029v11.657c0 0.57 0.428 1.028 0.96 1.028h1.92c0.532 0 0.96-0.459 0.96-1.028v-4.457h0.96c0.176 0 0.32-0.154 0.32-0.343v-2.057c0-0.189-0.144-0.343-0.32-0.343zM21.44 6.4h-1.92c-0.532 0-0.96 0.459-0.96 1.029v7.2h-5.12v-7.2c0-0.57-0.428-1.029-0.96-1.029h-1.92c-0.532 0-0.96 0.459-0.96 1.029v17.143c0 0.57 0.428 1.029 0.96 1.029h1.92c0.532 0 0.96-0.459 0.96-1.029v-7.2h5.12v7.2c0 0.57 0.428 1.029 0.96 1.029h1.92c0.532 0 0.96-0.459 0.96-1.029v-17.143c0-0.57-0.428-1.029-0.96-1.029z"></path>
        </symbol>

        <symbol id="icon-heart" fill="none" viewBox="0 0 32 18">
            <path d="M16.8261 2.09319C16.4004 1.66736 15.8951 1.32956 15.3389 1.09909C14.7827 0.868623 14.1865 0.75 13.5844 0.75C12.9823 0.75 12.3862 0.868623 11.8299 1.09909C11.2737 1.32956 10.7684 1.66736 10.3427 2.09319L9.45941 2.97652L8.57607 2.09319C7.71633 1.23344 6.55027 0.750446 5.33441 0.750446C4.11855 0.750446 2.95249 1.23344 2.09274 2.09319C1.233 2.95293 0.75 4.11899 0.75 5.33485C0.75 6.55072 1.233 7.71678 2.09274 8.57652L2.97607 9.45985L9.45941 15.9432L15.9427 9.45985L16.8261 8.57652C17.2519 8.15089 17.5897 7.64553 17.8202 7.08932C18.0506 6.5331 18.1693 5.93693 18.1693 5.33485C18.1693 4.73278 18.0506 4.13661 17.8202 3.58039C17.5897 3.02418 17.2519 2.51882 16.8261 2.09319Z"
                  stroke="currentColor" stroke-width="1.5" stroke-linecap="round" stroke-linejoin="round"></path>
        </symbol>

        <symbol id="icon-inverted_commas" viewBox="0 0 32 32">
            <path d="M8.201 17.469c1.546-0.613 2.785-0.452 3.719 0.481s1.21 2.421 0.831 4.463c-0.292 1.517-0.933 2.683-1.925 3.5-0.963 0.787-2.085 1.181-3.369 1.181-1.75 0-2.96-0.671-3.631-2.013-0.671-1.371-0.802-3.208-0.394-5.512 0.233-1.254 0.613-2.523 1.137-3.806s1.225-2.596 2.1-3.938c0.875-1.342 2.013-2.508 3.413-3.5s2.946-1.633 4.637-1.925l-0.437 4.638c-1.429 0.292-2.698 1.035-3.806 2.231-1.108 1.167-1.867 2.567-2.275 4.2zM21.37 17.469c1.546-0.613 2.785-0.452 3.719 0.481s1.21 2.421 0.831 4.463c-0.292 1.517-0.933 2.683-1.925 3.5-0.963 0.787-2.085 1.181-3.369 1.181-1.75 0-2.96-0.671-3.631-2.013-0.671-1.371-0.802-3.208-0.394-5.512 0.233-1.254 0.613-2.523 1.137-3.806s1.225-2.596 2.1-3.938c0.875-1.342 2.013-2.508 3.413-3.5s2.946-1.633 4.637-1.925l-0.437 4.638c-1.429 0.292-2.698 1.035-3.806 2.231-1.108 1.167-1.867 2.567-2.275 4.2z"></path>
        </symbol>

        <symbol id="icon-run_man" viewBox="0 0 32 32">
            <path d="M29.967 9.451c-0.429-0.501-1.193-0.567-1.706-0.149l-3.359 2.757-1.545-3.739c-0.055-0.14-0.138-0.258-0.234-0.362-0.316-0.686-0.864-1.275-1.619-1.617-0.328-0.146-0.667-0.224-1.005-0.262-0.075-0.038-0.142-0.088-0.227-0.114l-5.911-1.61c-0.332-0.088-0.665-0.031-0.938 0.125-0.325 0.107-0.603 0.338-0.736 0.672l-2.226 5.592c-0.241 0.608 0.067 1.294 0.692 1.534 0.621 0.236 1.325-0.068 1.568-0.678l1.88-4.722 2.692 0.731c-0.066 0.104-0.137 0.201-0.19 0.312l-3.451 7.309c-0.050 0.107-0.076 0.217-0.112 0.328l-4.194 6.871-7.019 2.294c-0.794 0.58-0.963 1.674-0.376 2.45 0.591 0.778 1.713 0.943 2.506 0.369l7.182-2.417c0.22-0.156 0.38-0.36 0.5-0.581 0.090-0.093 0.193-0.168 0.262-0.284l2.501-4.096 4.439 3.696-4.749 5.23c-0.654 0.721-0.589 1.832 0.152 2.469 0.74 0.643 1.873 0.575 2.531-0.149l5.927-6.524c0.184-0.201 0.294-0.433 0.369-0.676 0.044-0.132 0.044-0.268 0.055-0.405 0-0.069 0.027-0.132 0.021-0.196-0.016-0.478-0.215-0.943-0.615-1.274l-4.084-3.403c0.294-0.274 0.544-0.6 0.725-0.983l2.646-5.599 0.848 2.206c0.036 0.196 0.103 0.388 0.245 0.549 0.128 0.149 0.291 0.248 0.465 0.317 0.018 0.009 0.039 0.010 0.060 0.016 0.11 0.038 0.222 0.075 0.337 0.080 0.136 0.012 0.275-0.005 0.415-0.043 0.004-0.002 0.005-0.002 0.005-0.002 0.037-0.009 0.075-0.002 0.112-0.017 0.197-0.073 0.348-0.196 0.477-0.34l4.82-3.998c0.512-0.421 0.296-1.166-0.135-1.667z"></path>
            <path d="M23.871 6.602c1.866 0 3.378-1.478 3.378-3.301s-1.512-3.301-3.378-3.301c-1.866 0-3.378 1.478-3.378 3.301s1.513 3.301 3.378 3.301z"></path>
        </symbol>

        <symbol id="icon-star" viewBox="0 0 32 32">
            <path d="M13.618 1.701c0.737-2.268 3.945-2.268 4.682 0l2.080 6.402c0.33 1.014 1.275 1.701 2.341 1.701h6.731c2.384 0 3.376 3.051 1.447 4.453l-5.446 3.957c-0.863 0.627-1.224 1.738-0.894 2.752l2.080 6.402c0.737 2.268-1.859 4.154-3.788 2.752l-5.446-3.957c-0.863-0.627-2.031-0.627-2.894 0l-5.446 3.957c-1.929 1.402-4.525-0.484-3.788-2.752l2.080-6.402c0.33-1.014-0.031-2.125-0.894-2.752l-5.446-3.957c-1.929-1.402-0.938-4.453 1.447-4.453h6.731c1.066 0 2.012-0.687 2.341-1.701l2.080-6.402z"></path>
        </symbol>

        <symbol id="icon-trash" fill="none" viewBox="0 0 32 32">
            <path d="M11.5833 4.08333V3.41667C11.5833 2.48325 11.5833 2.01654 11.4017 1.66002C11.2419 1.34641 10.9869 1.09144 10.6733 0.931656C10.3168 0.75 9.85009 0.75 8.91667 0.75H7.58333C6.64991 0.75 6.1832 0.75 5.82668 0.931656C5.51308 1.09144 5.25811 1.34641 5.09832 1.66002C4.91667 2.01654 4.91667 2.48325 4.91667 3.41667V4.08333M6.58333 8.66667V12.8333M9.91667 8.66667V12.8333M0.75 4.08333H15.75M14.0833 4.08333V13.4167C14.0833 14.8168 14.0833 15.5169 13.8108 16.0516C13.5712 16.522 13.1887 16.9045 12.7183 17.1442C12.1835 17.4167 11.4835 17.4167 10.0833 17.4167H6.41667C5.01654 17.4167 4.31647 17.4167 3.78169 17.1442C3.31129 16.9045 2.92883 16.522 2.68915 16.0516C2.41667 15.5169 2.41667 14.8168 2.41667 13.4167V4.08333"
                  stroke="currentColor" stroke-width="1.5" stroke-linecap="round" stroke-linejoin="round"></path>
        </symbol>

        <symbol viewBox="0 0 6 12" id="icon-left">
            <path d="M1.90613 6.42567C1.82803 6.3482 1.76603 6.25604 1.72372 6.15449C1.68142 6.05294 1.65964 5.94401 1.65964 5.834C1.65964 5.72399 1.68142 5.61507 1.72372 5.51352C1.76603 5.41197 1.82803 5.31981 1.90613 5.24234L5.73113 1.42566C5.80924 1.34819 5.87124 1.25603 5.91354 1.15448C5.95585 1.05293 5.97763 0.944005 5.97763 0.833995C5.97763 0.723985 5.95585 0.615064 5.91354 0.513514C5.87124 0.411964 5.80924 0.319797 5.73113 0.242327C5.575 0.0871181 5.36379 0 5.14363 0C4.92348 0 4.71227 0.0871181 4.55613 0.242327L0.731133 4.06733C0.262965 4.53609 0 5.1715 0 5.834C0 6.49651 0.262965 7.13192 0.731133 7.60067L4.55613 11.4257C4.71135 11.5796 4.92085 11.6664 5.13947 11.6673C5.24914 11.668 5.35786 11.647 5.45939 11.6055C5.56092 11.564 5.65327 11.5029 5.73113 11.4257C5.80924 11.3482 5.87124 11.256 5.91354 11.1545C5.95585 11.0529 5.97763 10.944 5.97763 10.834C5.97763 10.724 5.95585 10.6151 5.91354 10.5135C5.87124 10.412 5.80924 10.3198 5.73113 10.2423L1.90613 6.42567Z"
                  fill="currentCollor"></path>
        </symbol>

        <symbol viewBox="0 0 6 12" id="icon-right">
            <path d="M4.07141 6.42567C4.14951 6.3482 4.21151 6.25604 4.25382 6.15449C4.29612 6.05294 4.3179 5.94401 4.3179 5.834C4.3179 5.72399 4.29612 5.61507 4.25382 5.51352C4.21151 5.41197 4.14951 5.31981 4.07141 5.24234L0.246406 1.42566C0.168299 1.34819 0.106303 1.25603 0.0639955 1.15448C0.0216882 1.05293 -9.30601e-05 0.944005 -9.30601e-05 0.833995C-9.30601e-05 0.723985 0.0216882 0.615064 0.0639955 0.513514C0.106303 0.411964 0.168299 0.319797 0.246406 0.242327C0.402541 0.0871181 0.613751 0 0.833906 0C1.05406 0 1.26527 0.0871181 1.42141 0.242327L5.24641 4.06733C5.71457 4.53609 5.97754 5.1715 5.97754 5.834C5.97754 6.49651 5.71457 7.13192 5.24641 7.60067L1.42141 11.4257C1.26619 11.5796 1.05669 11.6664 0.838072 11.6673C0.7284 11.668 0.619681 11.647 0.51815 11.6055C0.416618 11.564 0.324272 11.5029 0.246406 11.4257C0.168299 11.3482 0.106303 11.256 0.0639955 11.1545C0.0216882 11.0529 -9.30601e-05 10.944 -9.30601e-05 10.834C-9.30601e-05 10.724 0.0216882 10.6151 0.0639955 10.5135C0.106303 10.412 0.168299 10.3198 0.246406 10.2423L4.07141 6.42567Z"
                  fill="currentCollor"></path>
        </symbol>

        <symbol viewBox="8 6 14 12" id="icon-double-left">
            <path d="M9.83338 12.5917C9.75527 12.5142 9.69328 12.4221 9.65097 12.3205C9.60866 12.219 9.58688 12.11 9.58688 12C9.58688 11.89 9.60866 11.7811 9.65097 11.6795C9.69328 11.578 9.75527 11.4858 9.83338 11.4084L13.6584 7.59168C13.7365 7.51421 13.7985 7.42204 13.8408 7.32049C13.8831 7.21894 13.9049 7.11002 13.9049 7.00001C13.9049 6.89 13.8831 6.78108 13.8408 6.67953C13.7985 6.57798 13.7365 6.48581 13.6584 6.40834C13.5022 6.25313 13.291 6.16602 13.0709 6.16602C12.8507 6.16602 12.6395 6.25313 12.4834 6.40834L8.65838 10.2334C8.19021 10.7021 7.92725 11.3375 7.92725 12C7.92725 12.6625 8.19021 13.2979 8.65838 13.7667L12.4834 17.5917C12.6386 17.7457 12.8481 17.8324 13.0667 17.8334C13.1764 17.834 13.2851 17.813 13.3866 17.7715C13.4882 17.73 13.5805 17.6689 13.6584 17.5917C13.7365 17.5142 13.7985 17.4221 13.8408 17.3205C13.8831 17.219 13.9049 17.11 13.9049 17C13.9049 16.89 13.8831 16.7811 13.8408 16.6795C13.7985 16.578 13.7365 16.4858 13.6584 16.4084L9.83338 12.5917Z"
                  fill="currentColor"></path>
            <path d="M16.8334 12.5917C16.7553 12.5142 16.6933 12.4221 16.651 12.3205C16.6087 12.219 16.5869 12.11 16.5869 12C16.5869 11.89 16.6087 11.7811 16.651 11.6795C16.6933 11.578 16.7553 11.4858 16.8334 11.4084L20.6584 7.59168C20.7365 7.51421 20.7985 7.42204 20.8408 7.32049C20.8831 7.21894 20.9049 7.11002 20.9049 7.00001C20.9049 6.89 20.8831 6.78108 20.8408 6.67953C20.7985 6.57798 20.7365 6.48581 20.6584 6.40834C20.5022 6.25313 20.291 6.16602 20.0709 6.16602C19.8507 6.16602 19.6395 6.25313 19.4834 6.40834L15.6584 10.2334C15.1902 10.7021 14.9272 11.3375 14.9272 12C14.9272 12.6625 15.1902 13.2979 15.6584 13.7667L19.4834 17.5917C19.6386 17.7457 19.8481 17.8324 20.0667 17.8334C20.1764 17.834 20.2851 17.813 20.3866 17.7715C20.4882 17.73 20.5805 17.6689 20.6584 17.5917C20.7365 17.5142 20.7985 17.4221 20.8408 17.3205C20.8831 17.219 20.9049 17.11 20.9049 17C20.9049 16.89 20.8831 16.7811 20.8408 16.6795C20.7985 16.578 20.7365 16.4858 20.6584 16.4084L16.8334 12.5917Z"
                  fill="currentColor"></path>
        </symbol>

        <symbol viewBox="9 6 14 12" id="icon-double-right">
            <path d="M21.1666 12.5917C21.2447 12.5142 21.3067 12.4221 21.349 12.3205C21.3913 12.219 21.4131 12.11 21.4131 12C21.4131 11.89 21.3913 11.7811 21.349 11.6795C21.3067 11.578 21.2447 11.4858 21.1666 11.4084L17.3416 7.59168C17.2635 7.51421 17.2015 7.42204 17.1592 7.32049C17.1169 7.21894 17.0951 7.11002 17.0951 7.00001C17.0951 6.89 17.1169 6.78108 17.1592 6.67953C17.2015 6.57798 17.2635 6.48581 17.3416 6.40834C17.4978 6.25313 17.709 6.16602 17.9291 6.16602C18.1493 6.16602 18.3605 6.25313 18.5166 6.40834L22.3416 10.2334C22.8098 10.7021 23.0728 11.3375 23.0728 12C23.0728 12.6625 22.8098 13.2979 22.3416 13.7667L18.5166 17.5917C18.3614 17.7457 18.1519 17.8324 17.9333 17.8334C17.8236 17.834 17.7149 17.813 17.6134 17.7715C17.5118 17.73 17.4195 17.6689 17.3416 17.5917C17.2635 17.5142 17.2015 17.4221 17.1592 17.3205C17.1169 17.219 17.0951 17.11 17.0951 17C17.0951 16.89 17.1169 16.7811 17.1592 16.6795C17.2015 16.578 17.2635 16.4858 17.3416 16.4084L21.1666 12.5917Z"
                  fill="currentColor"></path>
            <path d="M14.1666 12.5917C14.2447 12.5142 14.3067 12.4221 14.349 12.3205C14.3913 12.219 14.4131 12.11 14.4131 12C14.4131 11.89 14.3913 11.7811 14.349 11.6795C14.3067 11.578 14.2447 11.4858 14.1666 11.4084L10.3416 7.59168C10.2635 7.51421 10.2015 7.42204 10.1592 7.32049C10.1169 7.21894 10.0951 7.11002 10.0951 7.00001C10.0951 6.89 10.1169 6.78108 10.1592 6.67953C10.2015 6.57798 10.2635 6.48581 10.3416 6.40834C10.4978 6.25313 10.709 6.16602 10.9291 6.16602C11.1493 6.16602 11.3605 6.25313 11.5166 6.40834L15.3416 10.2334C15.8098 10.7021 16.0728 11.3375 16.0728 12C16.0728 12.6625 15.8098 13.2979 15.3416 13.7667L11.5166 17.5917C11.3614 17.7457 11.1519 17.8324 10.9333 17.8334C10.8236 17.834 10.7149 17.813 10.6134 17.7715C10.5118 17.73 10.4195 17.6689 10.3416 17.5917C10.2635 17.5142 10.2015 17.4221 10.1592 17.3205C10.1169 17.219 10.0951 17.11 10.0951 17C10.0951 16.89 10.1169 16.7811 10.1592 16.6795C10.2015 16.578 10.2635 16.4858 10.3416 16.4084L14.1666 12.5917Z"
                  fill="currentColor"></path>
        </symbol>

        <symbol  id="icon-close" viewBox="0 0 32 32">
            <path d="M19.8334 8.16675L8.16675 19.8334M8.16675 8.16675L19.8334 19.8334" stroke="currentColor" stroke-width="2" stroke-linecap="round" stroke-linejoin="round"></path>
        </symbol>

        <symbol id="icon-menu" viewBox="0 0 32 32">
          <path d="M28 13.3334H4" stroke="#242424" stroke-width="2" stroke-linecap="round" stroke-linejoin="round"></path>
          <path d="M28 8H4" stroke="#242424" stroke-width="2" stroke-linecap="round" stroke-linejoin="round"></path>
          <path d="M28 18.6666H4" stroke="#242424" stroke-width="2" stroke-linecap="round" stroke-linejoin="round"></path>
          <path d="M28 24H4" stroke="#242424" stroke-width="2" stroke-linecap="round" stroke-linejoin="round"></path>
        </symbol>

        <symbol  id="icon-logo" fill="none" viewBox="0 0 132 14">
          <path d="M4.98 8.28L0 0H2.98L6.32 5.74H6.36L9.7 0H12.68L7.7 8.28V14H4.98V8.28Z" fill="currentColor"></path>
          <path d="M12.6703 11.7V2.3L14.9703 0H22.1703L24.4703 2.3V11.7L22.1703 14H14.9703L12.6703 11.7ZM20.7303 11.68L21.7503 10.66V3.34L20.7303 2.32H16.4103L15.3903 3.34V10.66L16.4103 11.68H20.7303Z" fill="currentColor"></path>
          <path d="M26.3742 11.6V0H29.0942V10.66L30.1142 11.68H34.0342L35.0542 10.66V0H37.7742V11.6L35.3742 14H28.7742L26.3742 11.6Z" fill="currentColor"></path>
          <path d="M50.8781 9.36V14H48.1581V9.98L46.9581 8.64H42.5981V14H39.8781V0H48.6581L50.7981 2.16V6.4L49.4381 7.78L50.8781 9.36ZM42.5981 6.4H47.4181L48.1181 5.7V2.98L47.4181 2.28H42.5981V6.4Z" fill="currentColor"></path>
          <path d="M57.8234 0H67.9434V2.3H60.5434V5.84H67.3634V8.1H60.5434V11.7H67.9434V14H57.8234V0Z" fill="currentColor"></path>
          <path d="M69.4523 0H71.8923L78.1323 9.5H78.1723V0H80.7923V14H78.3523L72.1123 4.52H72.0723V14H69.4523V0Z" fill="currentColor"></path>
          <path d="M82.8977 0H93.0177V2.3H85.6177V5.84H92.4377V8.1H85.6177V11.7H93.0177V14H82.8977V0Z" fill="currentColor"></path>
          <path d="M105.527 9.36V14H102.807V9.98L101.607 8.64H97.2466V14H94.5266V0H103.307L105.447 2.16V6.4L104.087 7.78L105.527 9.36ZM97.2466 6.4H102.067L102.767 5.7V2.98L102.067 2.28H97.2466V6.4Z" fill="currentColor"></path>
          <path d="M107.323 11.7V2.3L109.623 0H116.583L118.843 2.26V4.4H116.123V3.26L115.183 2.32H111.063L110.043 3.34V10.66L111.063 11.68H115.223L116.203 10.7V8.52H113.203V6.2H118.843V11.7L116.543 14H109.623L107.323 11.7Z" fill="currentColor"></path>
          <path d="M123.828 8.28L118.848 0H121.828L125.168 5.74H125.208L128.548 0H131.528L126.548 8.28V14H123.828V8.28Z" fill="currentColor"></path>
        </symbol>

      <symbol id="icon-loader-sun" viewBox="0 0 64 64">
        <circle cx="32" cy="32" r="7" fill="currentColor" stroke="none"/>
        <path d="M30.5 18 32 2l1.5 16Z" fill="currentColor" stroke="none"/>
        <path d="M30.5 18 32 2l1.5 16Z" fill="currentColor" stroke="none" transform="rotate(30 32 32)"/>
        <path d="M30.5 18 32 2l1.5 16Z" fill="currentColor" stroke="none" transform="rotate(60 32 32)"/>
        <path d="M30.5 18 32 2l1.5 16Z" fill="currentColor" stroke="none" transform="rotate(90 32 32)"/>
        <path d="M30.5 18 32 2l1.5 16Z" fill="currentColor" stroke="none" transform="rotate(120 32 32)"/>
        <path d="M30.5 18 32 2l1.5 16Z" fill="currentColor" stroke="none" transform="rotate(150 32 32)"/>
        <path d="M30.5 18 32 2l1.5 16Z" fill="currentColor" stroke="none" transform="rotate(180 32 32)"/>
        <path d="M30.5 18 32 2l1.5 16Z" fill="currentColor" stroke="none" transform="rotate(210 32 32)"/>
        <path d="M30.5 18 32 2l1.5 16Z" fill="currentColor" stroke="none" transform="rotate(240 32 32)"/>
        <path d="M30.5 18 32 2l1.5 16Z" fill="currentColor" stroke="none" transform="rotate(270 32 32)"/>
        <path d="M30.5 18 32 2l1.5 16Z" fill="currentColor" stroke="none" transform="rotate(300 32 32)"/>
        <path d="M30.5 18 32 2l1.5 16Z" fill="currentColor" stroke="none" transform="rotate(330 32 32)"/>
      </symbol>
    </defs>
</svg>
